<svg xmlns="http://www.w3.org/2000/svg" viewBox="0 0 240 240" role="img" aria-label="Payment QR code">
  <rect width="240" height="240" rx="28" fill="#0b1220"/>
  <g fill="#fff">
    <rect x="20" y="20" width="60" height="60" rx="8"/>
    <rect x="180" y="20" width="40" height="40" rx="6"/>
    <rect x="20" y="180" width="40" height="40" rx="6"/>
    <rect x="100" y="25" width="20" height="20"/>
    <rect x="130" y="25" width="20" height="20"/>
    <rect x="160" y="25" width="20" height="20"/>
    <rect x="100" y="55" width="20" height="20"/>
    <rect x="130" y="55" width="20" height="20"/>
    <rect x="160" y="55" width="20" height="20"/>
    <rect x="100" y="85" width="20" height="20"/>
    <rect x="130" y="85" width="20" height="20"/>
    <rect x="160" y="85" width="20" height="20"/>
    <rect x="100" y="115" width="20" height="20"/>
    <rect x="130" y="115" width="20" height="20"/>
    <rect x="160" y="115" width="20" height="20"/>
    <rect x="100" y="145" width="20" height="20"/>
    <rect x="130" y="145" width="20" height="20"/>
    <rect x="160" y="145" width="20" height="20"/>
    <rect x="100" y="175" width="20" height="20"/>
    <rect x="130" y="175" width="20" height="20"/>
    <rect x="160" y="175" width="20" height="20"/>
  </g>
  <text x="120" y="220" fill="#94a3b8" font-family="Inter, sans-serif" font-size="14" text-anchor="middle">Scan to pay</text>
</svg>
